<?xml version="1.0" encoding="UTF-8" standalone="no"?>
<svg
   xmlns:dc="http://purl.org/dc/elements/1.1/"
   xmlns:cc="http://creativecommons.org/ns#"
   xmlns:rdf="http://www.w3.org/1999/02/22-rdf-syntax-ns#"
   xmlns:svg="http://www.w3.org/2000/svg"
   xmlns="http://www.w3.org/2000/svg"
   xmlns:sodipodi="http://sodipodi.sourceforge.net/DTD/sodipodi-0.dtd"
   xmlns:inkscape="http://www.inkscape.org/namespaces/inkscape"
   viewBox="0 0 24 20.999999"
   version="1.1"
   id="svg6"
   sodipodi:docname="krone.svg"
   width="24"
   height="21"
   inkscape:version="0.92.2 (5c3e80d, 2017-08-06)">
  <defs
     id="defs10" />
  <sodipodi:namedview
     pagecolor="#ffffff"
     bordercolor="#666666"
     borderopacity="1"
     objecttolerance="10"
     gridtolerance="10"
     guidetolerance="10"
     inkscape:pageopacity="0"
     inkscape:pageshadow="2"
     inkscape:window-width="1691"
     inkscape:window-height="890"
     id="namedview8"
     showgrid="false"
     inkscape:zoom="7.5870513"
     inkscape:cx="-2.7014038"
     inkscape:cy="-8.7314026"
     inkscape:window-x="0"
     inkscape:window-y="27"
     inkscape:window-maximized="0"
     inkscape:current-layer="svg6" />
  <path fill="#bf9548"
     d="m 6.3287762,18.971905 -1.989099,0.171994 a 14.070056,14.007926 0 0 1 0.1223692,1.83221 v 0.02389 l 2.5505575,-0.219769 a 57.40554,57.15205 0 0 1 9.9862841,0 l 2.538561,0.219769 v -0.02866 a 14.070056,14.007926 0 0 1 0.122369,-1.832209 l -1.989099,-0.171994 a 65.333143,65.044646 0 0 0 -11.3419428,0.0048 z M 22.457513,8.2127476 a 1.2596827,1.2541202 0 0 0 -0.777404,1.9110414 l -2.639335,1.700825 a 0.47987912,0.47776008 0 1 1 -0.3959,-0.214991 V 7.7278216 a 1.4780277,1.4715011 0 1 0 -1.048536,-0.434762 l -2.425789,2.388801 A 0.47987912,0.47776008 0 1 1 14.69067,9.5695866 l -2.159456,-6.3136 a 1.6795769,1.6721603 0 1 0 -1.077329,0 l -2.1450595,6.323156 a 0.47987912,0.47776008 0 1 1 -0.4798791,0.112273 l -2.425789,-2.3888 A 1.4756283,1.4691122 0 1 0 5.3546215,7.7373776 V 11.614401 A 0.47987912,0.47776008 0 1 1 4.9587213,11.829392 L 2.3193861,10.128567 A 1.2620821,1.256509 0 1 0 0.00156987,9.5050886 1.2956736,1.2899522 0 0 0 0.66620246,10.532273 1.1349141,1.1299026 0 0 0 1.6739487,10.630223 l 2.0106935,5.747453 a 14.065257,14.003148 0 0 1 0.4558852,1.614829 l 2.0898735,-0.181548 a 66.511246,66.217547 0 0 1 11.5386931,0 l 2.089874,0.181548 a 14.067656,14.005536 0 0 1 0.455885,-1.614829 l 2.010694,-5.747453 a 1.1373135,1.1322914 0 0 0 1.005346,-0.09556 1.2956736,1.2899522 0 0 0 0.667032,-1.0247964 1.2620821,1.256509 0 0 0 -1.540412,-1.297119 z M 8.3322715,14.52157 c -0.321519,0.08122 -0.7198187,-0.391763 -0.8877764,-1.05346 -0.1679577,-0.661698 -0.04079,-1.266065 0.2807293,-1.344895 0.321519,-0.07883 0.7198187,0.391763 0.8877764,1.05346 0.1679577,0.661698 0.04079,1.261287 -0.2807293,1.344895 z m 3.6638775,-0.0191 c -0.506273,0 -0.91657,-0.843247 -0.91657,-1.882375 0,-1.039128 0.410297,-1.882375 0.91657,-1.882375 0.506272,0 0.916569,0.843247 0.916569,1.882375 0,1.039128 -0.410297,1.879987 -0.916569,1.879987 z M 16.555,13.46812 c -0.167957,0.661697 -0.563858,1.13468 -0.887776,1.05346 -0.323919,-0.08122 -0.448687,-0.683197 -0.280729,-1.344895 0.167957,-0.661697 0.563858,-1.13468 0.887776,-1.05346 0.323918,0.08122 0.439089,0.680808 0.271132,1.342505 z"
     inkscape:connector-curvature="0"
     style="stroke-width:0.23940921" />
  <metadata
     id="metadata4512">
    <rdf:RDF>
      <cc:Work
         rdf:about="">
        <dc:title></dc:title>
      </cc:Work>
    </rdf:RDF>
  </metadata>
</svg>
